<?xml version="1.0" encoding="UTF-8"?>
<svg xmlns="http://www.w3.org/2000/svg" xmlns:xlink="http://www.w3.org/1999/xlink" version="1.1" viewBox="0 0 116.3 50">
  <defs>
    <style>
      .cls-1 {
        fill: #636061;
        opacity: .7;
      }

      .cls-1, .cls-2, .cls-3, .cls-4, .cls-5, .cls-6, .cls-7, .cls-8, .cls-9, .cls-10, .cls-11, .cls-12, .cls-13, .cls-14, .cls-15, .cls-16, .cls-17, .cls-18, .cls-19, .cls-20, .cls-21, .cls-22, .cls-23, .cls-24, .cls-25, .cls-26, .cls-27, .cls-28, .cls-29, .cls-30, .cls-31, .cls-32, .cls-33, .cls-34, .cls-35, .cls-36, .cls-37, .cls-38, .cls-39, .cls-40, .cls-41, .cls-42, .cls-43, .cls-44, .cls-45 {
        stroke-width: 0px;
      }

      .cls-2 {
        fill: #8d8b8c;
        opacity: .5;
      }

      .cls-3 {
        fill: #bfbebe;
        opacity: .3;
      }

      .cls-4 {
        fill: #a3a1a1;
        opacity: .4;
      }

      .cls-5 {
        fill: #c6c5c5;
        opacity: .3;
      }

      .cls-6 {
        fill: #6a6768;
        opacity: .7;
      }

      .cls-7 {
        fill: #312d2e;
        opacity: .9;
      }

      .cls-8 {
        fill: url(#linear-gradient);
      }

      .cls-9 {
        fill: url(#radial-gradient);
      }

      .cls-10 {
        fill: #b8b7b7;
        opacity: .3;
      }

      .cls-11 {
        fill: #d4d4d4;
        opacity: .2;
      }

      .cls-12 {
        fill: #555252;
        opacity: .8;
      }

      .cls-13 {
        fill: #f8f8f8;
        opacity: 0;
      }

      .cls-14 {
        fill: #383536;
        opacity: .9;
      }

      .cls-46, .cls-40 {
        mix-blend-mode: multiply;
      }

      .cls-15 {
        mix-blend-mode: screen;
      }

      .cls-15, .cls-21, .cls-47 {
        fill: #ededed;
      }

      .cls-16 {
        fill: #e3e2e2;
        opacity: .1;
      }

      .cls-17 {
        fill: #716e6f;
        opacity: .6;
      }

      .cls-48 {
        clip-path: url(#clippath-40);
      }

      .cls-18 {
        fill: #f0f0f0;
      }

      .cls-19 {
        fill: #cdcccd;
        opacity: .2;
      }

      .cls-20 {
        fill: #b1b0b0;
        opacity: .4;
      }

      .cls-22 {
        fill: #7f7d7e;
        opacity: .6;
      }

      .cls-23 {
        fill: #aaa8a9;
        opacity: .4;
      }

      .cls-49 {
        fill: url(#linear-gradient-3);
      }

      .cls-24 {
        fill: #5c595a;
        opacity: .7;
      }

      .cls-25 {
        fill: #3f3c3d;
        opacity: .9;
      }

      .cls-26 {
        fill: #f1f1f1;
        opacity: 0;
      }

      .cls-27 {
        fill: #959393;
        opacity: .5;
      }

      .cls-28 {
        fill: #fff;
        opacity: 0;
      }

      .cls-29 {
        fill: #eae9e9;
        opacity: 0;
      }

      .cls-30 {
        fill: #787676;
        opacity: .6;
      }

      .cls-31 {
        fill: url(#linear-gradient-4);
      }

      .cls-32 {
        fill: url(#linear-gradient-2);
      }

      .cls-33 {
        fill: url(#linear-gradient-8);
      }

      .cls-34 {
        fill: url(#linear-gradient-9);
      }

      .cls-35 {
        fill: url(#linear-gradient-7);
      }

      .cls-36 {
        fill: url(#linear-gradient-5);
      }

      .cls-37 {
        fill: url(#linear-gradient-6);
      }

      .cls-38 {
        fill: #4e4a4b;
        opacity: .8;
      }

      .cls-39 {
        fill: #464344;
        opacity: .8;
      }

      .cls-40 {
        fill: url(#radial-gradient-2);
        opacity: .6;
      }

      .cls-41 {
        fill: #9c9a9a;
        opacity: .5;
      }

      .cls-50 {
        isolation: isolate;
      }

      .cls-42 {
        fill: #2a2627;
        opacity: 1;
      }

      .cls-43 {
        fill: #868485;
        opacity: .5;
      }

      .cls-44 {
        fill: #dcdbdb;
        opacity: .2;
      }

      .cls-45 {
        fill: #231f20;
      }
    </style>
    <radialGradient id="radial-gradient" cx="1570.8" cy="-884" fx="1570.8" fy="-884" r="73.9" gradientTransform="translate(644 1072.5) rotate(-90) scale(.7)" gradientUnits="userSpaceOnUse">
      <stop offset="0" stop-color="#999"/>
      <stop offset="0" stop-color="#7e7e7e"/>
      <stop offset=".1" stop-color="#616161"/>
      <stop offset=".2" stop-color="#4a4a4a"/>
      <stop offset=".2" stop-color="#3a3a3a"/>
      <stop offset=".3" stop-color="#313131"/>
      <stop offset=".4" stop-color="#2e2e2e"/>
      <stop offset=".7" stop-color="gray"/>
      <stop offset="1" stop-color="#333"/>
    </radialGradient>
    <linearGradient id="linear-gradient" x1="396.5" y1="-50.6" x2="457.5" y2="-67.4" gradientTransform="translate(82.3 444.5) rotate(-90.1) scale(1 1)" gradientUnits="userSpaceOnUse">
      <stop offset="0" stop-color="#ededed"/>
      <stop offset="0" stop-color="#e4e4e4"/>
      <stop offset=".2" stop-color="#ababab"/>
      <stop offset=".3" stop-color="#818181"/>
      <stop offset=".4" stop-color="#676767"/>
      <stop offset=".5" stop-color="#5e5e5e"/>
      <stop offset=".6" stop-color="#969696"/>
      <stop offset=".7" stop-color="#c4c4c4"/>
      <stop offset=".7" stop-color="#e0e0e0"/>
      <stop offset=".8" stop-color="#ebebeb"/>
    </linearGradient>
    <linearGradient id="linear-gradient-2" x1="432.8" y1="45.1" x2="397.4" y2="45.1" gradientTransform="translate(22 440.2) rotate(-90)" gradientUnits="userSpaceOnUse">
      <stop offset="0" stop-color="#333"/>
      <stop offset="0" stop-color="#484848"/>
      <stop offset=".2" stop-color="gray"/>
      <stop offset=".5" stop-color="#d9d9d9"/>
      <stop offset=".5" stop-color="#ebebeb"/>
      <stop offset="1" stop-color="#333"/>
    </linearGradient>
    <clipPath id="clippath-40">
      <path class="cls-21" d="M108.9,25.2c0,9.4-1.5,14.4-1.8,15.3,0,.3-.5.5-.8.5l-76.9-2.3c-.2,0-.4,0-.6.2-.2.2-.3.4-.3.6h0c0,.6-.7,1.2-1.8,1.2-1.1,0-1.8-.6-1.8-1.1V11.2c0-.5.7-1.1,1.8-1.2,1.1,0,1.8.6,1.8,1.1h0c0,.3,0,.5.3.7.2.2.4.2.6.2l76.9-2.6c.3,0,.7.3.8.5.3.9,1.8,5.9,1.9,15.3ZM81.3,25.3c0,4,.2,7.6.7,10.7,0,.4.4.6.7.7l20.3.5c.4,0,.7-.3.8-.6.4-2.2.9-6,.9-11.3,0-5.3-.5-9.1-.9-11.3,0-.4-.4-.6-.8-.6l-20.3.6c-.4,0-.7.3-.7.7-.4,3.1-.6,6.7-.6,10.7ZM31.6,30c0,2.9,1.8,5.2,4,5.2h21.6c2.2,0,3.9-2.4,3.9-5.3v-9.2c0-2.9-1.8-5.2-4-5.2h-21.6c-2.2,0-3.9,2.4-3.9,5.3v9.2Z"/>
    </clipPath>
    <linearGradient id="linear-gradient-3" x1="431.8" y1="45.1" x2="399.6" y2="45.1" gradientTransform="translate(22 440.2) rotate(-90)" gradientUnits="userSpaceOnUse">
      <stop offset="0" stop-color="#ccc"/>
      <stop offset="0" stop-color="#c2c2c2"/>
      <stop offset="0" stop-color="#777"/>
      <stop offset=".5" stop-color="#fff"/>
      <stop offset=".9" stop-color="#666"/>
      <stop offset="1" stop-color="#ccc"/>
    </linearGradient>
    <linearGradient id="linear-gradient-4" x1="419.1" y1="21.6" x2="419.1" y2="46.5" gradientTransform="translate(17.1 444.2) rotate(-90.1)" gradientUnits="userSpaceOnUse">
      <stop offset="0" stop-color="#454545"/>
      <stop offset=".2" stop-color="#5a5a5a"/>
      <stop offset=".5" stop-color="#929292"/>
      <stop offset=".9" stop-color="#ebebeb"/>
      <stop offset="1" stop-color="#fff"/>
    </linearGradient>
    <radialGradient id="radial-gradient-2" cx="3263.6" cy="-1148.7" fx="3263.6" fy="-1148.7" r="33.7" gradientTransform="translate(954.2 1537.9) rotate(-90.1) scale(.5 .8)" gradientUnits="userSpaceOnUse">
      <stop offset="0" stop-color="#000"/>
      <stop offset="1" stop-color="#fff"/>
    </radialGradient>
    <linearGradient id="linear-gradient-5" x1="418.8" y1="20.8" x2="418.8" y2="45.8" gradientTransform="translate(17.1 444.2) rotate(-90.1)" gradientUnits="userSpaceOnUse">
      <stop offset="0" stop-color="#282828"/>
      <stop offset=".2" stop-color="#3d3d3d"/>
      <stop offset=".7" stop-color="#757575"/>
      <stop offset="1" stop-color="#979797"/>
    </linearGradient>
    <linearGradient id="linear-gradient-6" x1="423.3" y1="70.3" x2="410.4" y2="91.2" xlink:href="#linear-gradient-4"/>
    <linearGradient id="linear-gradient-7" x1="418.8" y1="61.7" x2="418.8" y2="93" gradientTransform="translate(17.1 444.2) rotate(-90.1)" gradientUnits="userSpaceOnUse">
      <stop offset="0" stop-color="#151515"/>
      <stop offset=".1" stop-color="#2a2a2a"/>
      <stop offset=".4" stop-color="#626262"/>
      <stop offset=".7" stop-color="#bbb"/>
      <stop offset="1" stop-color="#fff"/>
    </linearGradient>
    <linearGradient id="linear-gradient-8" x1="419.2" y1="1.3" x2="419.2" y2="31.7" gradientTransform="translate(17.1 444.2) rotate(-90.1)" gradientUnits="userSpaceOnUse">
      <stop offset="0" stop-color="#5e5e5e"/>
      <stop offset=".1" stop-color="#686868"/>
      <stop offset=".3" stop-color="#838383"/>
      <stop offset=".4" stop-color="#8c8c8c"/>
      <stop offset=".4" stop-color="#a9a9a9"/>
      <stop offset=".4" stop-color="#c8c8c8"/>
      <stop offset=".5" stop-color="#e0e0e0"/>
      <stop offset=".6" stop-color="#f1f1f1"/>
      <stop offset=".6" stop-color="#fbfbfb"/>
      <stop offset=".7" stop-color="#fff"/>
      <stop offset=".7" stop-color="#eaeaea"/>
      <stop offset=".7" stop-color="#bbb"/>
      <stop offset=".8" stop-color="#939393"/>
      <stop offset=".8" stop-color="#737373"/>
      <stop offset=".9" stop-color="#5a5a5a"/>
      <stop offset=".9" stop-color="#484848"/>
      <stop offset=".9" stop-color="#3d3d3d"/>
      <stop offset="1" stop-color="#3a3a3a"/>
    </linearGradient>
    <linearGradient id="linear-gradient-9" x1="-2534.2" y1="-284.2" x2="-2534.2" y2="-323.2" gradientTransform="translate(-291.8 2517.4) rotate(89.9) scale(1 1)" gradientUnits="userSpaceOnUse">
      <stop offset="0" stop-color="#bababa"/>
      <stop offset="0" stop-color="#c4c4c4"/>
      <stop offset="0" stop-color="#dfdfdf"/>
      <stop offset="0" stop-color="#fff"/>
      <stop offset=".2" stop-color="#636363"/>
      <stop offset=".5" stop-color="#7d7d7d"/>
      <stop offset=".8" stop-color="#fcfcfc"/>
    </linearGradient>
  </defs>
  <g class="cls-50">
    <g id="Capa_1" data-name="Capa 1">
      <g>
        <g class="cls-46">
          <path class="cls-45" d="M57.8,15.6c1.7,0,3.1,1.3,3.1,2.9v13.5c0,1.6-1.4,3-3.1,3h-23.1c-1.7,0-3.1-1.3-3.1-2.9v-13.5c0-1.6,1.4-3,3.1-3h23.1Z"/>
          <path class="cls-42" d="M57.6,15.8c1.7,0,3.1,1.3,3.1,2.9v13.2c0,1.6-1.4,2.9-3.1,2.9h-22.8c-1.7,0-3.1-1.3-3.1-2.9v-13.2c0-1.6,1.4-2.9,3.1-2.9h22.8Z"/>
          <path class="cls-7" d="M57.5,15.9c1.7,0,3.1,1.3,3.1,2.9v12.9c0,1.6-1.3,2.9-3.1,2.9h-22.4c-1.7,0-3.1-1.3-3.1-2.9v-12.9c0-1.6,1.3-2.9,3.1-2.9h22.4Z"/>
          <path class="cls-14" d="M57.3,16.1c1.7,0,3.1,1.3,3.1,2.9v12.6c0,1.6-1.3,2.9-3,2.9h-22.1c-1.7,0-3.1-1.2-3.1-2.8v-12.6c0-1.6,1.3-2.9,3-2.9h22.1Z"/>
          <path class="cls-25" d="M57.1,16.2c1.7,0,3.1,1.3,3.1,2.9v12.4c0,1.6-1.3,2.9-3,2.9h-21.8c-1.7,0-3.1-1.2-3.1-2.8v-12.4c0-1.6,1.3-2.9,3-2.9h21.8Z"/>
          <path class="cls-39" d="M56.9,16.4c1.7,0,3,1.3,3,2.9v12.1c0,1.6-1.3,2.9-3,2.9h-21.4c-1.7,0-3-1.2-3-2.8v-12.1c0-1.6,1.3-2.9,3-2.9h21.4Z"/>
          <path class="cls-38" d="M56.7,16.6c1.7,0,3,1.3,3,2.8v11.8c0,1.6-1.3,2.8-3,2.8h-21.1c-1.7,0-3-1.2-3-2.8v-11.8c0-1.6,1.3-2.8,3-2.8h21.1Z"/>
          <path class="cls-12" d="M56.6,16.7c1.7,0,3,1.3,3,2.8v11.5c0,1.6-1.3,2.8-3,2.8h-20.8c-1.7,0-3-1.2-3-2.8v-11.5c0-1.6,1.3-2.8,3-2.8h20.8Z"/>
          <path class="cls-24" d="M56.4,16.9c1.6,0,3,1.2,3,2.8v11.3c0,1.5-1.3,2.8-2.9,2.8h-20.4c-1.6,0-3-1.2-3-2.8v-11.3c0-1.5,1.3-2.8,2.9-2.8h20.4Z"/>
          <path class="cls-1" d="M56.2,17c1.6,0,3,1.2,3,2.8v11c0,1.5-1.3,2.8-2.9,2.8h-20.1c-1.6,0-3-1.2-3-2.7v-11c0-1.5,1.3-2.8,2.9-2.8h20.1Z"/>
          <path class="cls-6" d="M56,17.2c1.6,0,2.9,1.2,2.9,2.8v10.7c0,1.5-1.3,2.8-2.9,2.8h-19.8c-1.6,0-2.9-1.2-2.9-2.7v-10.7c0-1.5,1.3-2.8,2.9-2.8h19.8Z"/>
          <path class="cls-17" d="M55.8,17.3c1.6,0,2.9,1.2,2.9,2.7v10.4c0,1.5-1.3,2.7-2.9,2.8h-19.4c-1.6,0-2.9-1.2-2.9-2.7v-10.4c0-1.5,1.3-2.8,2.9-2.8h19.4Z"/>
          <path class="cls-30" d="M55.7,17.5c1.6,0,2.9,1.2,2.9,2.7v10.2c0,1.5-1.3,2.7-2.9,2.7h-19.1c-1.6,0-2.9-1.2-2.9-2.7v-10.2c0-1.5,1.3-2.7,2.9-2.7h19.1Z"/>
          <path class="cls-22" d="M55.5,17.6c1.6,0,2.9,1.2,2.9,2.7v9.9c0,1.5-1.3,2.7-2.9,2.7h-18.8c-1.6,0-2.9-1.2-2.9-2.7v-9.9c0-1.5,1.3-2.7,2.8-2.7h18.8Z"/>
          <path class="cls-43" d="M55.3,17.8c1.6,0,2.9,1.2,2.9,2.7v9.6c0,1.5-1.3,2.7-2.8,2.7h-18.4c-1.6,0-2.9-1.2-2.9-2.6v-9.6c0-1.5,1.3-2.7,2.8-2.7h18.4Z"/>
          <path class="cls-2" d="M55.1,17.9c1.6,0,2.8,1.2,2.8,2.7v9.3c0,1.5-1.2,2.7-2.8,2.7h-18.1c-1.6,0-2.8-1.2-2.8-2.6v-9.3c0-1.5,1.2-2.7,2.8-2.7h18.1Z"/>
          <path class="cls-27" d="M55,18.1c1.6,0,2.8,1.2,2.8,2.6v9.1c0,1.5-1.2,2.7-2.8,2.7h-17.8c-1.6,0-2.8-1.1-2.8-2.6v-9.1c0-1.5,1.2-2.7,2.8-2.7h17.8Z"/>
          <path class="cls-41" d="M54.8,18.2c1.5,0,2.8,1.2,2.8,2.6v8.8c0,1.5-1.2,2.6-2.8,2.6h-17.4c-1.5,0-2.8-1.1-2.8-2.6v-8.8c0-1.5,1.2-2.6,2.8-2.6h17.4Z"/>
          <path class="cls-4" d="M54.6,18.4c1.5,0,2.8,1.2,2.8,2.6v8.5c0,1.4-1.2,2.6-2.8,2.6h-17.1c-1.5,0-2.8-1.1-2.8-2.6v-8.5c0-1.4,1.2-2.6,2.8-2.6h17.1Z"/>
          <path class="cls-23" d="M54.4,18.5c1.5,0,2.8,1.2,2.8,2.6v8.2c0,1.4-1.2,2.6-2.7,2.6h-16.8c-1.5,0-2.8-1.1-2.8-2.6v-8.2c0-1.4,1.2-2.6,2.7-2.6h16.8Z"/>
          <path class="cls-20" d="M54.2,18.7c1.5,0,2.7,1.2,2.7,2.6v8c0,1.4-1.2,2.6-2.7,2.6h-16.4c-1.5,0-2.7-1.1-2.7-2.5v-8c0-1.4,1.2-2.6,2.7-2.6h16.4Z"/>
          <path class="cls-10" d="M54.1,18.9c1.5,0,2.7,1.1,2.7,2.6v7.7c0,1.4-1.2,2.6-2.7,2.6h-16.1c-1.5,0-2.7-1.1-2.7-2.5v-7.7c0-1.4,1.2-2.6,2.7-2.6h16.1Z"/>
          <path class="cls-3" d="M53.9,19c1.5,0,2.7,1.1,2.7,2.5v7.4c0,1.4-1.2,2.5-2.7,2.6h-15.8c-1.5,0-2.7-1.1-2.7-2.5v-7.4c0-1.4,1.2-2.5,2.7-2.6h15.8Z"/>
          <path class="cls-5" d="M53.7,19.2c1.5,0,2.7,1.1,2.7,2.5v7.1c0,1.4-1.2,2.5-2.7,2.5h-15.4c-1.5,0-2.7-1.1-2.7-2.5v-7.1c0-1.4,1.2-2.5,2.7-2.5h15.4Z"/>
          <path class="cls-19" d="M53.5,19.3c1.5,0,2.7,1.1,2.7,2.5v6.9c0,1.4-1.2,2.5-2.6,2.5h-15.1c-1.5,0-2.7-1.1-2.7-2.5v-6.9c0-1.4,1.2-2.5,2.6-2.5h15.1Z"/>
          <path class="cls-11" d="M53.3,19.5c1.5,0,2.6,1.1,2.7,2.5v6.6c0,1.4-1.2,2.5-2.6,2.5h-14.8c-1.5,0-2.6-1.1-2.6-2.5v-6.6c0-1.4,1.2-2.5,2.6-2.5h14.8Z"/>
          <path class="cls-44" d="M53.2,19.6c1.5,0,2.6,1.1,2.6,2.5v6.3c0,1.4-1.2,2.5-2.6,2.5h-14.4c-1.4,0-2.6-1.1-2.6-2.4v-6.3c0-1.4,1.2-2.5,2.6-2.5h14.4Z"/>
          <path class="cls-16" d="M53,19.8c1.4,0,2.6,1.1,2.6,2.4v6c0,1.4-1.1,2.5-2.6,2.5h-14.1c-1.4,0-2.6-1.1-2.6-2.4v-6c0-1.4,1.1-2.5,2.6-2.5h14.1Z"/>
          <path class="cls-29" d="M52.8,19.9c1.4,0,2.6,1.1,2.6,2.4v5.8c0,1.3-1.1,2.4-2.6,2.4h-13.8c-1.4,0-2.6-1.1-2.6-2.4v-5.8c0-1.3,1.1-2.4,2.6-2.4h13.8Z"/>
          <path class="cls-26" d="M52.6,20.1c1.4,0,2.6,1.1,2.6,2.4v5.5c0,1.3-1.1,2.4-2.6,2.4h-13.4c-1.4,0-2.6-1.1-2.6-2.4v-5.5c0-1.3,1.1-2.4,2.5-2.4h13.4Z"/>
          <path class="cls-13" d="M52.5,20.2c1.4,0,2.6,1.1,2.6,2.4v5.2c0,1.3-1.1,2.4-2.5,2.4h-13.1c-1.4,0-2.5-1-2.5-2.4v-5.2c0-1.3,1.1-2.4,2.5-2.4h13.1Z"/>
          <path class="cls-28" d="M52.3,20.4c1.4,0,2.5,1.1,2.5,2.4v4.9c0,1.3-1.1,2.4-2.5,2.4h-12.8c-1.4,0-2.5-1-2.5-2.3v-4.9c0-1.3,1.1-2.4,2.5-2.4h12.8Z"/>
        </g>
        <path class="cls-9" d="M2.6,8.7C.8,13,.6,23.5.6,25c0,1.5.2,12,2,16.3,2,4.6,5.6,9.8,14.1,8.4,8.5-1.4,8.1-7.3,20.9-7.3h12.8c1.6,0,2.9-1.3,2.9-2.9V10.2c0-1.6-1.4-2.8-3-2.8h-12.8c-12.9,0-12.4-5.8-20.9-7.2C8.1-1.2,4.5,4.1,2.6,8.7Z"/>
        <path class="cls-18" d="M3.1,9.6c-1.6,4.1-1.7,14-1.7,15.4,0,1.5.2,11.4,1.8,15.4,1.8,4.4,4.9,9.3,12.5,8,7.6-1.3,7.2-6.9,18.6-6.9h13.3c1.4,0,2.6-1.2,2.6-2.7V11c0-1.5-1.2-2.7-2.7-2.7h-13.3c-11.4,0-11-5.5-18.6-6.8C8,.3,4.8,5.2,3.1,9.6Z"/>
        <path class="cls-8" d="M4.1,9.8c-1.6,4.1-1.7,14-1.7,15.4,0,1.5.1,11.4,1.7,15.4,1.7,4.4,4.7,9.3,12.1,8,7.3-1.3,6.9-6.9,17.9-6.9h12.8c1.4,0,2.5-1.2,2.5-2.7V11.3c0-1.5-1.2-2.7-2.6-2.7h-12.8c-11,0-10.6-5.5-17.9-6.8C8.9.5,5.8,5.4,4.1,9.8Z"/>
        <path class="cls-32" d="M29.5,10.8h0c0-1.1-1.2-2-2.7-2-1.5,0-2.6.9-2.6,2v28.4c0,1.1,1.3,2,2.7,2,1.5,0,2.7-.9,2.7-2h0c0,0,76.9,2.3,76.9,2.3.7,0,1.4-.5,1.6-1.1.7-2,1.9-7.2,1.8-15.6,0-8.4-1.2-13.6-1.9-15.6-.2-.6-1-1.1-1.6-1.1l-76.9,2.6ZM35.8,34c-1.7,0-3.1-2-3.1-4.4v-9.2c0-2.4,1.4-4.4,3.1-4.4h21.6c1.7,0,3.1,2,3.1,4.3v9.2c0,2.4-1.4,4.4-3.1,4.4h-21.6ZM105.1,24.8c0,5.6-.5,9.6-.9,12.2l-22.2-.5c-.5-3.4-.7-7.3-.7-11.6,0-4.3.2-8.2.7-11.6l22.2-.6c.5,2.6,1,6.6,1,12.2Z"/>
        <g>
          <path class="cls-47" d="M108.9,25.2c0,9.4-1.5,14.4-1.8,15.3,0,.3-.5.5-.8.5l-76.9-2.3c-.2,0-.4,0-.6.2-.2.2-.3.4-.3.6h0c0,.6-.7,1.2-1.8,1.2-1.1,0-1.8-.6-1.8-1.1V11.2c0-.5.7-1.1,1.8-1.2,1.1,0,1.8.6,1.8,1.1h0c0,.3,0,.5.3.7.2.2.4.2.6.2l76.9-2.6c.3,0,.7.3.8.5.3.9,1.8,5.9,1.9,15.3ZM81.3,25.3c0,4,.2,7.6.7,10.7,0,.4.4.6.7.7l20.3.5c.4,0,.7-.3.8-.6.4-2.2.9-6,.9-11.3,0-5.3-.5-9.1-.9-11.3,0-.4-.4-.6-.8-.6l-20.3.6c-.4,0-.7.3-.7.7-.4,3.1-.6,6.7-.6,10.7ZM31.6,30c0,2.9,1.8,5.2,4,5.2h21.6c2.2,0,3.9-2.4,3.9-5.3v-9.2c0-2.9-1.8-5.2-4-5.2h-21.6c-2.2,0-3.9,2.4-3.9,5.3v9.2Z"/>
          <g class="cls-48">
            <rect class="cls-15" x="20.9" y="13.8" width="94.9" height="19.7" transform="translate(-1 3.2) rotate(-2.7)"/>
          </g>
        </g>
        <path class="cls-49" d="M109.1,24.8c0,9.4-1.5,14.4-1.8,15.3,0,.3-.5.5-.8.5l-76.9-2.3c-.2,0-.4,0-.6.2-.2.2-.3.4-.3.6h0c0,.6-.7,1.2-1.8,1.2-1.1,0-1.8-.6-1.8-1.1V10.8c0-.5.7-1.1,1.8-1.2,1.1,0,1.8.6,1.8,1.1h0c0,.3,0,.5.3.7.2.2.4.2.6.2l76.9-2.6c.3,0,.7.3.8.5.3.9,1.8,5.9,1.9,15.3ZM81.5,24.9c0,4,.2,7.6.7,10.7,0,.4.4.6.7.7l20.3.5c.4,0,.7-.3.8-.6.4-2.2.9-6,.9-11.3,0-5.3-.5-9.1-.9-11.3,0-.4-.4-.6-.8-.6l-20.3.6c-.4,0-.7.3-.7.7-.4,3.1-.6,6.7-.6,10.7ZM31.9,29.6c0,2.9,1.8,5.2,4,5.2h21.6c2.2,0,3.9-2.4,3.9-5.3v-9.2c0-2.9-1.8-5.2-4-5.2h-21.6c-2.2,0-3.9,2.4-3.9,5.3v9.2Z"/>
        <path class="cls-31" d="M31.3,20.6v9.2c0,3.1,2,5.6,4.3,5.6h22.2c2.4,0,4.3-2.6,4.3-5.6v-9.2c0-3.1-2-5.9-4.3-5.9h-22.2c-2.4,0-4.3,2.8-4.3,5.9ZM57.8,15.9c1.7,0,3.1,2.3,3.1,4.7v9.2c0,2.4-1.4,4.4-3.1,4.4h-22.2c-1.7,0-3.1-2-3.1-4.3v-9.2c0-2.4,1.4-4.7,3.1-4.7h22.2Z"/>
        <path class="cls-40" d="M30,9.6c14.9,0,27,6.9,27,15.6s-12,15.6-27,15.7c-14.9,0-27-6.9-27-15.6,0-8.6,12-15.6,26.9-15.7Z"/>
        <path class="cls-36" d="M31.5,20.7v9.2c0,3.1,2,5.6,4.3,5.6h21.6c2.4,0,4.3-2.6,4.3-5.6v-9.2c0-3.1-2-5.6-4.3-5.6h-21.6c-2.4,0-4.3,2.6-4.3,5.6ZM57.4,16.3c1.7,0,3.1,2,3.1,4.4v9.2c0,2.4-1.4,4.4-3.1,4.4h-21.6c-1.7,0-3.1-2-3.1-4.4v-9.2c0-2.4,1.4-4.4,3.1-4.4h21.6Z"/>
        <path class="cls-37" d="M82.1,14.2c-.4,3.3-.6,7-.6,11.1,0,4.1.2,7.8.6,11.1,0,.3.3.6.6.6l21.4.8c.3,0,.6-.2.6-.5.4-2.6.8-6.7.8-11.9,0-5.2-.7-9.1-1.2-11.7,0-.3-.3-.5-.6-.5l-21.1.6c-.3,0-.6.3-.6.6ZM103.7,35.9c0,.3-.3.5-.6.5l-20-.5c-.3,0-.6-.3-.6-.6-.3-3-.5-6.4-.5-10.1,0-3.7.2-7.4.5-10.4,0-.3.3-.6.6-.6l20-.6c.3,0,.6.2.6.5.4,2.4.7,6.2.7,10.9,0,4.7-.3,8.3-.7,10.7Z"/>
        <path class="cls-35" d="M81.8,14.2c-.4,3.3-.6,7-.6,11.1,0,4.1.2,7.8.6,11.1,0,.3.3.6.6.6l21.1.5c.3,0,.6-.2.6-.5.4-2.6.8-6.4.8-11.7,0-5.2-.4-9.1-.9-11.7,0-.3-.3-.5-.6-.5l-21.1.6c-.3,0-.6.3-.6.6ZM103.4,35.9c0,.3-.3.5-.6.5l-19.4-.5c-.3,0-.6-.3-.6-.6-.3-3-.5-6.4-.5-10.1,0-3.7.2-7.1.5-10.1,0-.3.3-.6.6-.6l19.4-.6c.3,0,.6.2.6.5.4,2.4.7,5.9.7,10.7,0,4.7-.3,8.3-.7,10.7Z"/>
        <path class="cls-33" d="M45.3,17c2.4,0,2.3,1.3,2.3,3.7v8.4c0,2.5.2,3.8-2.2,3.8H4.4C2,33,0,31,0,28.6v-7.1c0-2.5,2-4.4,4.4-4.5h40.9Z"/>
        <path class="cls-34" d="M3.8,31.3c-2.1,0-3.8-1.6-3.8-3.6v-5.6c0-1.9,1.7-3.5,3.7-3.6l34.7-.5c2.4,0,2.2,1.6,2.2,3.8v6.1c0,2.1.2,3.8-2.2,3.8l-34.7-.4Z"/>
      </g>
    </g>
  </g>
</svg>